<svg width="189" height="35" viewBox="0 0 189 35" fill="none" xmlns="http://www.w3.org/2000/svg">
<path opacity="0.1" fill-rule="evenodd" clip-rule="evenodd" d="M187.5 23.8759C187.5 23.8759 180.178 23.0829 171.853 24.988C156.019 28.6114 155.116 21.9761 149.245 18.7767C143.873 15.8496 139.424 17.6355 133.443 21.2151C129.032 23.8552 122.604 28.287 115.946 27.5735C109.86 26.9213 105.546 21.7236 97.1106 20.4017C90.425 19.354 84.9918 22.2322 77.2932 21.2151C66.8495 19.8354 62.1845 11.7124 54.7204 11.7124C45.5079 11.7124 39.0219 4.84229 30.6411 4.84229C22.3101 4.84229 21.1792 8.88208 12.0658 11.7124C5.09848 13.8762 1.74609 11.7124 1.74609 11.7124V34.8991H187.5V23.8759Z" fill="url(#paint0_linear_2347_12223)"/>
<path d="M187.5 20.2745C187.5 20.2745 180.178 19.4929 171.853 21.3705C156.019 24.9414 155.116 18.4022 149.245 15.2491C143.873 12.3644 139.424 14.1244 133.443 17.6522C129.032 20.2541 122.604 24.6217 115.946 23.9186C109.86 23.2758 105.546 18.1533 97.1106 16.8505C90.425 15.818 84.9918 18.6546 77.2932 17.6522C66.8495 16.2924 62.1845 8.28703 54.7204 8.28703C45.5079 8.28703 39.0219 1.5 30.6411 1.5C22.3101 1.5 21.8671 5.49768 12.7537 8.28703C5.78647 10.4195 1.74609 8.28703 1.74609 8.28703" stroke="#1B59F8" stroke-width="2" stroke-linecap="round" stroke-linejoin="round"/>
<defs>
<linearGradient id="paint0_linear_2347_12223" x1="153.929" y1="20.0933" x2="153.929" y2="34.8991" gradientUnits="userSpaceOnUse">
<stop stop-color="#0062FF"/>
<stop offset="1" stop-color="white" stop-opacity="0.01"/>
</linearGradient>
</defs>
</svg>
