<svg width="188" height="35" viewBox="0 0 188 35" fill="none" xmlns="http://www.w3.org/2000/svg">
<path opacity="0.1" fill-rule="evenodd" clip-rule="evenodd" d="M1.24597 23.8759C1.24597 23.8759 8.56824 23.0829 16.8932 24.988C32.7269 28.6114 33.6301 21.9761 39.5014 18.7767C44.873 15.8496 49.3217 17.6355 55.3025 21.2151C59.7136 23.8552 66.1423 28.287 72.7999 27.5735C78.8856 26.9213 83.1999 21.7236 91.6354 20.4017C98.321 19.354 103.754 22.2322 111.453 21.2151C121.896 19.8354 126.561 11.7124 134.026 11.7124C143.238 11.7124 149.724 4.84229 158.105 4.84229C166.436 4.84229 167.567 8.88208 176.68 11.7124C183.647 13.8762 187 11.7124 187 11.7124V34.8991H1.24597V23.8759Z" fill="url(#paint0_linear_2275_23241)"/>
<path d="M1.24597 20.2745C1.24597 20.2745 8.56824 19.4929 16.8932 21.3705C32.7269 24.9414 33.6301 18.4022 39.5014 15.2491C44.873 12.3644 49.3217 14.1244 55.3025 17.6522C59.7136 20.2541 66.1423 24.6217 72.7999 23.9186C78.8856 23.2758 83.1999 18.1533 91.6354 16.8505C98.321 15.818 103.754 18.6546 111.453 17.6522C121.896 16.2924 126.561 8.28703 134.026 8.28703C143.238 8.28703 149.724 1.5 158.105 1.5C166.436 1.5 166.879 5.49768 175.992 8.28703C182.96 10.4195 187 8.28703 187 8.28703" stroke="#1B59F8" stroke-width="2" stroke-linecap="round" stroke-linejoin="round"/>
<defs>
<linearGradient id="paint0_linear_2275_23241" x1="34.8165" y1="20.0933" x2="34.8165" y2="34.8991" gradientUnits="userSpaceOnUse">
<stop stop-color="#0062FF"/>
<stop offset="1" stop-color="white" stop-opacity="0.01"/>
</linearGradient>
</defs>
</svg>
